<?xml version="1.0" standalone="no"?>
<!DOCTYPE svg PUBLIC "-//W3C//DTD SVG 1.0//EN" "http://www.w3.org/TR/2001/REC-SVG-20010904/DTD/svg10.dtd">
<svg xmlns="http://www.w3.org/2000/svg" xmlns:xlink="http://www.w3.org/1999/xlink" id="body_1" width="15" height="14">

<g transform="matrix(0.046875 0 0 0.046875 -0 0.24999976)">
	<g>
		<g>
            <path d="M192.31 104.86C 201.8383 101.0562 212.373 103.664604 221.386 107.6577C 231.44301 112.3837 241.717 119.2597 245.843 130.0537C 247.694 134.4585 246.47884 139.59799 243.2987 143.05069C 240.7967 145.1881 237.2379 144.5918 234.2395 144.28938C 227.43361 142.82838 223.26651 136.77408 217.97751 132.80838C 213.3928 128.77287 208.51231 124.40388 202.3065 123.28758C 196.7704 122.3729 191.9615 126.036385 188.4125 129.83638C 183.07231 136.42378 179.699 144.34038 177.06851 152.33337C 175.35971 159.30417 171.72362 165.95537 172.1616 173.31238C 171.64162 166.52618 169.70581 159.92137 169.5202 153.10138C 169.17354 144.30878 170.28886 135.46738 172.4969 126.96538C 176.54651 117.85438 182.8049 108.83638 192.3089 104.859375L192.3089 104.859375L192.31 104.86z" stroke="#000000" stroke-width="0.1" fill="#00007F" fill-rule="nonzero" fill-opacity="0.44705883" />
            <path d="M192.31 104.86C 201.8383 101.0562 212.373 103.664604 221.386 107.6577C 231.44301 112.3837 241.717 119.2597 245.843 130.0537C 247.694 134.4585 246.47884 139.59799 243.2987 143.05069C 240.7967 145.1881 237.2379 144.5918 234.2395 144.28938C 227.43361 142.82838 223.26651 136.77408 217.97751 132.80838C 213.3928 128.77287 208.51231 124.40388 202.3065 123.28758C 196.7704 122.3729 191.9615 126.036385 188.4125 129.83638C 183.07231 136.42378 179.699 144.34038 177.06851 152.33337C 175.35971 159.30417 171.72362 165.95537 172.1616 173.31238C 171.64162 166.52618 169.70581 159.92137 169.5202 153.10138C 169.17354 144.30878 170.28886 135.46738 172.4969 126.96538C 176.54651 117.85438 182.8049 108.83638 192.3089 104.859375L192.3089 104.859375L192.31 104.86z" stroke="none" fill="#00007F" fill-rule="nonzero" fill-opacity="0.44705883" />
            <path d="M279.18 110.68C 286.0792 109.8793 293.33 112.5856 297.96 117.7798C 301.1006 121.6458 303.20978 126.5159 303.17578 131.5468C 302.56723 137.6641 299.48877 143.7088 294.35208 147.2248C 288.29688 151.5165 280.02008 152.41049 273.2061 149.4357C 263.0831 145.5895 257.18808 132.5587 262.39108 122.7157C 265.3188 116.02 272.0683 111.6637 279.18008 110.679695L279.18008 110.679695L279.18 110.68z" stroke="#000000" stroke-width="0.1" fill="#00007F" fill-rule="nonzero" fill-opacity="0.44705883" />
            <path d="M279.18 110.68C 286.0792 109.8793 293.33 112.5856 297.96 117.7798C 301.1006 121.6458 303.20978 126.5159 303.17578 131.5468C 302.56723 137.6641 299.48877 143.7088 294.35208 147.2248C 288.29688 151.5165 280.02008 152.41049 273.2061 149.4357C 263.0831 145.5895 257.18808 132.5587 262.39108 122.7157C 265.3188 116.02 272.0683 111.6637 279.18008 110.679695L279.18008 110.679695L279.18 110.68z" stroke="none" fill="#00007F" fill-rule="nonzero" fill-opacity="0.44705883" />
            <path d="M351 146.24C 351.4079 146.21739 351.8205 146.20703 352.2369 146.21457C 352.06357 149.84317 353.0093 153.46887 352.4102 157.08357C 351.45218 163.29697 348.9503 169.13257 346.24008 174.75957C 340.28668 188.03957 329.02908 199.00656 315.3791 204.16757C 309.11298 206.37747 301.67908 206.20798 296.0321 202.43517C 286.9004 196.47327 279.7181 187.37917 276.5781 176.88217C 274.5895 171.21317 274.52078 164.40517 277.9393 159.26817C 279.649 157.01677 281.9579 154.50258 285.0467 154.67117C 288.2382 154.96603 291.09048 156.88298 293.01788 159.38118C 297.55548 165.33739 298.50497 173.08418 302.2457 179.44418C 305.375 183.54558 310.4354 188.41759 316.0297 186.01839C 322.7716 183.1679 328.44568 178.31949 333.9277 173.56538C 340.85892 167.60439 345.6827 159.64738 349.5337 151.45338C 350.30707 149.80959 350.8469 148.05748 350.99948 146.24039L350.99948 146.24039L351 146.24z" stroke="#000000" stroke-width="0.1" fill="#00007F" fill-rule="nonzero" fill-opacity="0.44705883" />
            <path d="M351 146.24C 351.4079 146.21739 351.8205 146.20703 352.2369 146.21457C 352.06357 149.84317 353.0093 153.46887 352.4102 157.08357C 351.45218 163.29697 348.9503 169.13257 346.24008 174.75957C 340.28668 188.03957 329.02908 199.00656 315.3791 204.16757C 309.11298 206.37747 301.67908 206.20798 296.0321 202.43517C 286.9004 196.47327 279.7181 187.37917 276.5781 176.88217C 274.5895 171.21317 274.52078 164.40517 277.9393 159.26817C 279.649 157.01677 281.9579 154.50258 285.0467 154.67117C 288.2382 154.96603 291.09048 156.88298 293.01788 159.38118C 297.55548 165.33739 298.50497 173.08418 302.2457 179.44418C 305.375 183.54558 310.4354 188.41759 316.0297 186.01839C 322.7716 183.1679 328.44568 178.31949 333.9277 173.56538C 340.85892 167.60439 345.6827 159.64738 349.5337 151.45338C 350.30707 149.80959 350.8469 148.05748 350.99948 146.24039L350.99948 146.24039L351 146.24z" stroke="none" fill="#00007F" fill-rule="nonzero" fill-opacity="0.44705883" />
            <path d="M182.57 184.33C 186.58011 180.9341 192.50241 181.26381 197.166 182.9622C 201.8515 184.9545 206.7876 186.4938 211.065 189.3273C 217.707 193.5832 224.054 198.35541 229.733 203.8373C 236.1489 209.0239 242.107 214.8093 247.213 221.30229C 250.981 225.73439 254.9148 230.9126 254.618 237.0503C 251.8344 245.99359 244.17099 252.53229 236.19899 256.9083C 225.62599 262.2843 213.833 264.417 202.53299 267.7163C 197.64589 269.2941 192.51599 269.8687 187.43399 270.41602C 181.67929 270.7269 175.894 271.91382 170.14299 270.89548C 173.8281 268.21738 178.2894 267.0258 182.34 265.04187C 193.971 260.02106 204.918 253.58386 216.25 247.94186C 221.0504 245.61797 225.75189 242.65627 228.497 237.92487C 228.35004 236.88487 228.20685 235.84776 228.06837 234.81346C 224.84207 231.54756 220.85927 229.21326 216.75438 227.23506C 211.96439 231.19426 206.44238 234.20586 202.03038 238.62607C 189.92238 247.63907 176.53738 254.70506 163.64238 262.50208C 146.28339 272.25836 129.86038 283.63208 112.17138 292.81308C 111.14088 293.18234 110.08488 293.46967 109.00438 293.67596C 115.79708 286.27466 123.70738 279.97595 130.39539 272.47296C 140.04709 262.36298 149.69838 252.24796 159.76839 242.55096C 170.40338 232.31096 180.74039 221.76897 190.59639 210.77496C 186.43939 206.93166 181.07188 203.39066 179.8084 197.49696C 178.60739 193.03946 179.31384 187.77367 182.57129 184.33197L182.57129 184.33197L182.57 184.33z" stroke="#000000" stroke-width="0.1" fill="#00007F" fill-rule="nonzero" fill-opacity="0.44705883" />
            <path d="M182.57 184.33C 186.58011 180.9341 192.50241 181.26381 197.166 182.9622C 201.8515 184.9545 206.7876 186.4938 211.065 189.3273C 217.707 193.5832 224.054 198.35541 229.733 203.8373C 236.1489 209.0239 242.107 214.8093 247.213 221.30229C 250.981 225.73439 254.9148 230.9126 254.618 237.0503C 251.8344 245.99359 244.17099 252.53229 236.19899 256.9083C 225.62599 262.2843 213.833 264.417 202.53299 267.7163C 197.64589 269.2941 192.51599 269.8687 187.43399 270.41602C 181.67929 270.7269 175.894 271.91382 170.14299 270.89548C 173.8281 268.21738 178.2894 267.0258 182.34 265.04187C 193.971 260.02106 204.918 253.58386 216.25 247.94186C 221.0504 245.61797 225.75189 242.65627 228.497 237.92487C 228.35004 236.88487 228.20685 235.84776 228.06837 234.81346C 224.84207 231.54756 220.85927 229.21326 216.75438 227.23506C 211.96439 231.19426 206.44238 234.20586 202.03038 238.62607C 189.92238 247.63907 176.53738 254.70506 163.64238 262.50208C 146.28339 272.25836 129.86038 283.63208 112.17138 292.81308C 111.14088 293.18234 110.08488 293.46967 109.00438 293.67596C 115.79708 286.27466 123.70738 279.97595 130.39539 272.47296C 140.04709 262.36298 149.69838 252.24796 159.76839 242.55096C 170.40338 232.31096 180.74039 221.76897 190.59639 210.77496C 186.43939 206.93166 181.07188 203.39066 179.8084 197.49696C 178.60739 193.03946 179.31384 187.77367 182.57129 184.33197L182.57129 184.33197L182.57 184.33z" stroke="none" fill="#00007F" fill-rule="nonzero" fill-opacity="0.44705883" />
		</g>
	</g>
</g>
</svg>